<svg width="32" height="30" viewBox="0 0 32 30" fill="none" xmlns="http://www.w3.org/2000/svg">
<path d="M7.19269 29.6672C4.06566 30.8015 0.761719 28.4854 0.761719 25.159V25.159C0.761719 23.1102 2.06329 21.2876 4.00124 20.6228L24.8956 13.455C26.2673 12.9845 27.6945 14.0037 27.6945 15.4539V15.4539C27.6945 16.904 26.2673 17.9232 24.8956 17.4527L4.00125 10.2849C2.06329 9.62007 0.761719 7.79754 0.761719 5.74873V5.74873C0.761719 2.42232 4.06567 0.106206 7.1927 1.24052L26.5069 8.24667C29.5397 9.34678 31.5593 12.2277 31.5593 15.4539V15.4539C31.5593 18.68 29.5397 21.5609 26.5069 22.6611L7.19269 29.6672Z" fill="white"/>
</svg>
