<svg width="32" height="30" viewBox="0 0 32 30" fill="none" xmlns="http://www.w3.org/2000/svg">
<path d="M31.5593 24.7444C31.5593 28.0709 28.2553 30.387 25.1283 29.2526L5.81406 22.2465C2.78131 21.1464 0.761719 18.2654 0.761719 15.0393V15.0393C0.761719 11.8132 2.78131 8.93223 5.81406 7.83212L25.1283 0.825969C28.2553 -0.308347 31.5593 2.00777 31.5593 5.33418V5.33418C31.5593 7.38299 30.2577 9.20552 28.3198 9.87034L7.42539 17.0381C6.05373 17.5087 4.62651 16.4894 4.62651 15.0393V15.0393C4.62651 13.5892 6.05373 12.5699 7.42538 13.0405L28.3198 20.2083C30.2577 20.8731 31.5593 22.6956 31.5593 24.7444V24.7444Z" fill="white"/>
</svg>
