<svg width="202" height="94" viewBox="0 0 202 94" fill="none" xmlns="http://www.w3.org/2000/svg">
<path d="M189.838 68.14C191.95 68.14 193.886 68.6533 195.646 69.68C197.435 70.6773 198.843 72.1293 199.87 74.036C200.926 75.9133 201.454 78.0987 201.454 80.592C201.454 83.0853 200.926 85.2853 199.87 87.192C198.843 89.0987 197.435 90.5653 195.646 91.592C193.886 92.5893 191.95 93.088 189.838 93.088C186.875 93.088 184.675 92.2813 183.238 90.668V92.648H173.778V60H183.722V70.208C185.13 68.8293 187.169 68.14 189.838 68.14ZM187.462 85.344C188.606 85.344 189.545 84.9333 190.278 84.112C191.011 83.2613 191.378 82.088 191.378 80.592C191.378 79.096 191.011 77.9373 190.278 77.116C189.545 76.2947 188.606 75.884 187.462 75.884C186.318 75.884 185.379 76.2947 184.646 77.116C183.913 77.9373 183.546 79.096 183.546 80.592C183.546 82.088 183.913 83.2613 184.646 84.112C185.379 84.9333 186.318 85.344 187.462 85.344Z" fill="white"/>
<path d="M169.367 68.5801V92.6481H159.907V90.3601C159.027 91.2694 158.001 91.9587 156.827 92.4281C155.654 92.8681 154.407 93.0881 153.087 93.0881C150.037 93.0881 147.587 92.1641 145.739 90.3161C143.891 88.4387 142.967 85.6227 142.967 81.8681V68.5801H152.911V80.1521C152.911 81.7947 153.175 82.9681 153.703 83.6721C154.231 84.3761 155.009 84.7281 156.035 84.7281C157.003 84.7281 157.81 84.3467 158.455 83.5841C159.101 82.7921 159.423 81.5601 159.423 79.8881V68.5801H169.367Z" fill="white"/>
<path d="M138.36 68.5664V92.648H127.976V77.1024H118.207V92.648H108V50.7969H118.207V68.5664H127.976H138.36Z" fill="white"/>
<path d="M195.59 26.7319L185.69 48C184.428 51.1387 182.859 53.3387 180.982 54.6C179.104 55.8613 176.802 56.492 174.074 56.492C172.724 56.492 171.36 56.2867 169.982 55.876C168.632 55.4947 167.562 54.9813 166.77 54.336L170.07 47.516C170.568 47.8973 171.126 48.2053 171.742 48.44C172.387 48.6747 173.003 48.792 173.59 48.792C174.675 48.792 175.496 48.4693 176.054 47.824L165.934 26.7319H176.142L181.114 39.6239L186.174 26.7319H195.59Z" fill="white"/>
<path d="M166.085 37.452C166.085 37.5987 166.041 38.376 165.953 39.784H149.233C149.585 40.6933 150.172 41.3973 150.993 41.896C151.815 42.3653 152.841 42.6 154.073 42.6C155.129 42.6 156.009 42.468 156.713 42.204C157.447 41.94 158.239 41.4853 159.089 40.84L164.281 46.076C161.935 48.6573 158.429 49.948 153.765 49.948C150.861 49.948 148.309 49.42 146.109 48.364C143.909 47.2787 142.208 45.7827 141.005 43.876C139.803 41.9693 139.201 39.828 139.201 37.452C139.201 35.0467 139.788 32.9053 140.961 31.028C142.164 29.1213 143.792 27.64 145.845 26.584C147.928 25.528 150.26 25 152.841 25C155.276 25 157.491 25.484 159.485 26.452C161.509 27.42 163.108 28.8427 164.281 30.72C165.484 32.5973 166.085 34.8413 166.085 37.452ZM152.929 31.776C151.903 31.776 151.052 32.0547 150.377 32.612C149.703 33.1693 149.263 33.9613 149.057 34.988H156.801C156.596 33.9907 156.156 33.2133 155.481 32.656C154.807 32.0693 153.956 31.776 152.929 31.776Z" fill="white"/>
<path d="M118.208 43.188L120.54 40.592L128.24 50.8H140.252L127.316 33.552L139.636 20H128.328L118.208 31.176V20H108V50.8H118.208V43.188Z" fill="#EA5A00"/>
<path d="M33.685 44.2857H0L13.2857 65.5429H33.6571L95.6571 93L33.685 44.2857Z" fill="white"/>
<path d="M33.685 44.2857H0L13.2857 65.5429H33.6571L95.6571 93L33.685 44.2857Z" fill="#EA5A00"/>
<path d="M95.6571 93L74.4 65.5429L87.6857 44.2857H69.7344L95.6571 93Z" fill="white"/>
<path d="M95.6571 93L74.4 65.5429L87.6857 44.2857H69.7344L95.6571 93Z" fill="#EA5A00"/>
<path d="M87.6857 17.7143H69.9714V33.6571H54.0285V17.7143H69.9714V0H17.7143V17.7143H33.6571V33.6571H17.7143V17.7143H0V44.2857H33.685L95.6571 93L69.7344 44.2857H87.6857L87.6857 17.7143Z" fill="white"/>
<path fill-rule="evenodd" clip-rule="evenodd" d="M54.0285 17.7143H69.9714V33.6571H54.0285V17.7143Z" fill="#EA5A00"/>
<path d="M33.6571 17.7143H17.7143V33.6571H33.6571V17.7143Z" fill="#EA5A00"/>
</svg>
