<svg width="1195" height="122" viewBox="0 0 1195 122" fill="none" xmlns="http://www.w3.org/2000/svg">
<path d="M60.5 90.875V60.625H75.625V90.875H60.5ZM60.5 45.5V15.25H75.625V45.5H60.5ZM0 106V0.124993H60.5V15.25H15.125V45.5H60.5V60.625H15.125V90.875H60.5V106H0ZM121 30.375H181.5V45.5H136.125V90.875H181.5V106H136.125V121.125H121V30.375ZM196.625 45.5V90.875H181.5V45.5H196.625ZM272.25 30.375V45.5H226.875V30.375H272.25ZM226.875 75.75V90.875H211.75V75.75H226.875ZM226.875 60.625H272.25V45.5H287.375V106H226.875V90.875H272.25V75.75H226.875V60.625ZM363 30.375V45.5H302.5V30.375H363ZM378.125 45.5V60.625H363V45.5H378.125ZM378.125 75.75V90.875H363V75.75H378.125ZM363 90.875V106H302.5V90.875H363ZM363 60.625V75.75H317.625V60.625H363ZM393.25 30.375H453.75V45.5H408.375V90.875H453.75V106H408.375V121.125H393.25V30.375ZM468.875 45.5V90.875H453.75V45.5H468.875ZM544.5 30.375V45.5H499.125V30.375H544.5ZM499.125 75.75V90.875H484V75.75H499.125ZM499.125 60.625H544.5V45.5H559.625V106H499.125V90.875H544.5V75.75H499.125V60.625ZM589.875 60.625V90.875H574.75V60.625H589.875ZM589.875 30.375V45.5H574.75V30.375H589.875ZM650.375 15.25V30.375H589.875V15.25H650.375ZM635.25 45.5V60.625H589.875V45.5H635.25ZM635.25 90.875V106H589.875V90.875H635.25ZM650.375 60.625V90.875H635.25V60.625H650.375ZM726 30.375V45.5H680.625V30.375H726ZM741.125 45.5V90.875H726V45.5H741.125ZM726 90.875V106H680.625V90.875H726ZM680.625 45.5V90.875H665.5V45.5H680.625ZM756.25 30.375H831.875V45.5H801.625V106H786.5V45.5H756.25V30.375ZM847 30.375H862.125V60.625H892.375V75.75H862.125V106H847V30.375ZM907.5 45.5V60.625H892.375V45.5H907.5ZM922.625 30.375V45.5H907.5V30.375H922.625ZM907.5 75.75V90.875H892.375V75.75H907.5ZM922.625 90.875V106H907.5V90.875H922.625ZM998.25 30.375V45.5H952.875V30.375H998.25ZM1013.38 90.875V106H952.875V90.875H1013.38ZM937.75 45.5H952.875V60.625H998.25V45.5H1013.38V75.75H952.875V90.875H937.75V45.5ZM1058.75 106V75.75H1073.88V106H1058.75ZM1089 121.125V106H1164.63V121.125H1089ZM1179.75 106V75.75H1194.88V106H1179.75Z" fill="white"/>
</svg>
